<?xml version="1.0" encoding="UTF-8" standalone="no"?>
<svg
   width="512px"
   height="512px"
   viewBox="0 0 512 512"
   style="zoom: 2;"
   visibility="visible"
   version="1.1"
   id="svg66"
   sodipodi:docname="egyptian-bird.svg"
   inkscape:version="1.2.1 (9c6d41e, 2022-07-14)"
   xmlns:inkscape="http://www.inkscape.org/namespaces/inkscape"
   xmlns:sodipodi="http://sodipodi.sourceforge.net/DTD/sodipodi-0.dtd"
   xmlns="http://www.w3.org/2000/svg"
   xmlns:svg="http://www.w3.org/2000/svg">
  <defs
     id="defs70" />
  <sodipodi:namedview
     id="namedview68"
     pagecolor="#ffffff"
     bordercolor="#000000"
     borderopacity="0.25"
     inkscape:showpageshadow="2"
     inkscape:pageopacity="0.0"
     inkscape:pagecheckerboard="0"
     inkscape:deskcolor="#d1d1d1"
     showgrid="false"
     inkscape:zoom="1.7128906"
     inkscape:cx="262.42189"
     inkscape:cy="257.16762"
     inkscape:window-width="1920"
     inkscape:window-height="1027"
     inkscape:window-x="0"
     inkscape:window-y="25"
     inkscape:window-maximized="1"
     inkscape:current-layer="svg66" />
  <path
     fill="#888888"
     d="m 393.20001,28.76 c -1.2,0 -2.5,0.1 -3.7,0.16 -3.3,0.26 -6.7,0.84 -10.2,1.77 -13.4,3.6 -27.47797,15.637488 -37.25667,27.608096 -2.7873,3.412069 -3.81725,7.943694 -5.59213,11.976191 -2.09727,4.764971 -4.14414,9.556752 -5.97264,14.431186 -6.40935,17.086147 -4.19194,27.198757 -17.49886,51.874227 -0.61668,1.09353 -19.2987,17.46882 -19.2987,17.46882 -119.7,86.7 -166.68099,203.9515 -265.020998,265.25148 -98.339996,61.29999 185.739998,-43.1 253.639998,-78.5 71.3,-37.3 75.1838,-117.90672 124.2,-167 0.17027,-0.17054 0.44662,-0.23128 0.57945,-0.43236 11.7149,-17.73401 11.62055,-52.06764 15.02055,-61.96764 0.9,-2.6 0.39788,-6.12216 2.6,-7.7 15.82403,-11.338088 30.3,-23.12 58.4,0.1 3.1,-27.19 -24.8,-53.8 -50.9,-48.22 -2.5,-9.52 -8.3,-16.44 -16.2,-21.05 -6.3,-3.75 -14.2,-5.84 -22.8,-5.77 m 13.4,17.24 c 5,0 9,4.03 9,9 0,4.97 -4,9 -9,9 -5,0 -9,-4.03 -9,-9 0,-4.97 4,-9 9,-9 m -43.88445,234.61555 c -8.75216,11.39776 -16.87796,20.99664 -27.55368,30.84519 -1.7312,25.45131 -4.95436,52.81216 -13.99506,78.59545 4.61653,0.44263 8.0724,9.43515 13.37206,8.79719 6.07523,-0.85059 10.85785,-2.97708 13.70158,-5.7415 2.97298,-2.97708 4.5241,-5.52888 5.68745,-11.90832 11.11636,-63.15662 6.38321,-66.50538 8.78765,-100.58801 M 325.20001,336.2 c -10.9,7.3 -22.4,14.1 -34.6,20.5 -9.9,5.2 -20.2,10 -30.8,14.7 l 7.2,27.5 c 1.1,4.2 2.5,5.2 5.9,6.3 3.3,1.1 8.8,1.1 14.6,-0.1 5.9,-1.2 12,-3.6 16.6,-6.1 4.6,-2.5 7.6,-6.1 7.1,-5.1 9.1,-17.7 12,-37.2 14,-57.7 m -145.29166,59.2749 c -24.86837,9.49856 -60.30758,21.91433 -86.914029,30.67298 -10.782794,3.54961 -12.007065,3.91097 -23.075026,7.25086 -9.184642,15.06074 -20.378975,15.97565 -7.740459,20.35503 14.336146,4.92064 32.098728,7.3985 44.926064,6.10858 16.51253,-1.7458 32.85429,-6.88792 42.54818,-12.37124 9.12715,-5.04309 20.13313,-24.24996 26.90509,-42.46173 1.24178,-3.29374 2.292,-6.47395 3.35018,-9.55448 m 165.38619,15.79272 c -3.7,0.3 -5.89453,-0.86762 -9.69453,-1.06762 l 1.8999,44.95834 -16.0667,19.19589 -25.3664,-19.19589 2.07073,-42.45835 c -1.20236,0.5 -3.18466,2.65143 -4.38702,3.05143 -2.8055,0.9 -4.89785,-0.35143 -7.83695,-0.35143 l -1.87033,41.1 -26.1862,5.69213 -22.75713,12.30787 H 427 L 406.76739,463.06783 384.05,456.49999 h -37.9 6.35"
     id="path64"
     sodipodi:nodetypes="cccaaaccscaacacccccsssccccccccccccccscccscccccccccccccccccccccc"
     style="display:inline;fill:#808080" />
</svg>
